<svg width="56" height="56" viewBox="0 0 56 56" fill="none" xmlns="http://www.w3.org/2000/svg">
<rect width="56" height="56" rx="12" fill="#F2DCDC"/>
<g clip-path="url(#clip0_2497_4342)">
<path d="M38 21.7194L33.4 17.8594L32.11 19.3894L36.71 23.2494L38 21.7194ZM23.88 19.3894L22.6 17.8594L18 21.7094L19.29 23.2394L23.88 19.3894ZM28.5 23.9994H27V29.9994L31.75 32.8494L32.5 31.6194L28.5 29.2494V23.9994ZM28 19.9994C23.03 19.9994 19 24.0294 19 28.9994C19 33.9694 23.02 37.9994 28 37.9994C32.97 37.9994 37 33.9694 37 28.9994C37 24.0294 32.97 19.9994 28 19.9994ZM28 35.9994C24.13 35.9994 21 32.8694 21 28.9994C21 25.1294 24.13 21.9994 28 21.9994C31.87 21.9994 35 25.1294 35 28.9994C35 32.8694 31.87 35.9994 28 35.9994Z" fill="#400D14"/>
</g>
<defs>
<clipPath id="clip0_2497_4342">
<rect width="24" height="24" fill="white" transform="translate(16 16)"/>
</clipPath>
</defs>
</svg>
