<svg width="363" height="315" viewBox="0 0 363 315" fill="none" xmlns="http://www.w3.org/2000/svg">
<g clip-path="url(#clip0_2363_3005)">
<path fill-rule="evenodd" clip-rule="evenodd" d="M281.737 256.785C283.792 263.716 282.488 271.789 277.785 277.499C274.742 281.161 267.509 284.469 263.478 280.649C261.66 278.916 260.909 273.088 260.119 270.331C259.408 267.811 258.222 263.164 258.736 261.038C259.487 257.966 265.652 258.675 268.537 258.399C272.963 257.966 277.35 257.375 281.737 256.785ZM339.834 260.329C340.782 262.455 342.324 263.873 342.995 266.197C343.403 267.721 343.694 269.275 343.865 270.843C344.063 272.773 344.221 272.694 342.877 273.561C340.861 274.939 335.684 274.821 333.234 275.215C330.032 275.727 326.831 276.357 323.63 276.869C324.42 273.876 323.986 270.686 324.816 267.654C325.587 264.647 326.973 261.832 328.886 259.384C330.309 257.572 332.404 255.406 334.973 255.406C338.253 255.406 338.806 258.005 339.834 260.329ZM136.338 196.572C136.812 202.952 135.903 209.725 132.267 215.199C130.726 217.522 128.473 218.782 126.655 220.751C124.56 223.075 123.414 225.91 120.055 226.895C117.921 227.525 115.391 227.092 113.139 227.367C109.424 227.84 108.317 227.328 105.195 225.398C102.942 224.02 100.373 224.296 98.0019 222.76C95.1563 220.948 92.706 218.389 89.979 216.341C105.155 209.056 120.727 202.794 136.338 196.572ZM176.926 200.392C182.696 203.109 185.779 207.717 187.399 213.702C171.472 217.325 155.94 221.775 140.29 226.777C144.677 215.711 149.577 205.551 161.513 200.392C163.884 199.368 166.334 197.714 169.061 197.753C171.828 197.793 174.555 199.25 176.926 200.392ZM322.326 216.813C330.546 221.106 326.357 234.889 323.511 240.993C319.875 238.315 316.042 235.716 312.445 233.117C308.533 230.282 305.055 226.58 301.498 223.351C303.395 222.366 304.62 220.83 306.359 219.688C308.098 218.586 309.797 218.507 311.774 218.074C315.449 217.247 318.453 214.766 322.326 216.813ZM258.222 185.782C258.894 186.609 259.645 187.396 260.277 188.263C261.779 190.35 263.083 192.476 264.822 194.406C267.905 197.832 272.41 202.361 277.429 202.676L277.587 204.133C276.086 204.094 275.216 202.833 273.912 202.676C272.884 202.558 271.462 203.345 270.236 203.227C266.401 202.865 262.548 202.721 258.696 202.794C250.99 202.991 243.401 204.212 235.853 205.196C237.315 200.037 240.003 194.8 244.31 191.374C245.812 190.192 247.235 188.538 248.895 187.593C249.922 187.042 250.989 186.963 252.017 186.53C253.203 186.018 254.784 184.285 256.009 184.128C257.313 184.01 257.313 184.64 258.222 185.782ZM319.954 186.254C323.986 189.483 327.108 193.579 330.428 197.478C333.431 200.983 337.502 206.023 338.569 210.513C333.234 213.033 324.065 210.709 320.626 206.102C316.398 200.392 318.492 192.437 319.954 186.254ZM227.435 167.824C226.644 173.18 224.036 179.166 220.163 183.143C218.503 184.876 217.041 187.121 215.104 188.617C212.614 190.586 210.638 189.562 207.753 189.877C204.67 190.192 202.655 192.201 199.335 191.689C197.003 191.295 194.829 189.995 192.616 189.602C190.205 189.168 188.111 189.444 185.7 188.223C182.736 186.766 180.365 183.852 178.072 181.647C179.298 180.702 181.748 180.623 183.289 180.111C185.344 179.441 187.399 178.733 189.455 178.103C193.723 176.764 197.952 175.385 202.22 174.046C210.401 171.526 218.977 169.124 227.435 167.824Z" fill="#D57A66"/>
<path fill-rule="evenodd" clip-rule="evenodd" d="M355.01 35.4271L354.734 37.1992C357.342 37.6718 357.421 36.0965 355.01 35.4271ZM343.707 32.3554C342.324 31.8828 340.032 32.5917 341.138 34.2457C342.679 36.6085 343.391 33.5368 343.707 32.3554ZM231.466 97.1362C231.664 96.9392 229.213 92.2136 228.897 91.426C227.316 92.3317 227.198 92.0955 227.83 93.6313C228.383 94.9702 230.359 96.2698 231.466 97.1362ZM85.9876 98.4357C85.2367 98.3569 83.6953 97.9238 83.063 98.1994C82.154 98.5538 82.3911 99.4202 82.3121 100.68C84.9205 100.523 85.3157 100.877 85.9876 98.4357ZM82.5492 95.876C83.8534 96.1123 85.1181 96.3485 86.4223 96.5848C86.699 95.1278 87.4103 92.6862 84.7229 93.5525C84.4462 93.6313 82.9049 95.364 82.5492 95.876ZM234.509 98.8689C233.126 100.208 239.489 103.083 240.161 102.177C241.584 100.208 235.418 99.1839 234.509 98.8689ZM266.008 82.8411C266.759 82.7623 267.549 82.6835 268.3 82.6048C268.023 81.5021 267.233 77.3672 265.534 77.5641C263.874 77.8004 265.771 81.9747 266.008 82.8411ZM268.814 89.5751C268.853 88.63 269.209 86.5822 268.853 85.6765C268.616 85.0858 267.589 83.2349 266.126 84.4163C265.81 84.6526 265.652 88.3937 265.771 88.5118C266.166 89.0238 268.261 89.3782 268.814 89.5751ZM260.87 101.507C259.289 100.287 255.851 98.5145 254.349 101.232C252.175 105.052 259.487 102.492 260.87 101.507ZM251.82 101.822C249.743 102.163 247.63 102.229 245.536 102.019C243.164 101.862 242.611 101.153 241.939 103.398C244.469 104.303 249.844 104.933 252.412 104.067L251.82 101.822ZM264.901 91.5048C264.19 93.0012 262.609 94.9308 262.174 96.4667C261.858 97.6087 261.74 97.0574 262.016 97.9238C262.095 98.2388 263.399 99.5777 263.597 99.8928C265.138 98.7114 267.035 97.53 267.826 95.7185C269.091 92.8437 267.47 92.6074 264.901 91.5048ZM229.609 85.4402C224.313 87.0942 217.831 88.6694 212.259 88.1968C212.18 88.6694 221.744 91.4654 222.89 91.2291C224.076 91.0322 224.155 89.4176 225.538 88.5512C227.079 87.6061 228.344 88.1574 230.043 87.9999C229.885 87.1729 229.767 86.3065 229.609 85.4402ZM246.958 107.493C242.256 107.241 237.662 105.992 233.482 103.831C231.031 102.571 229.253 100.72 227.593 98.6326C226.328 96.9786 226.565 97.1362 224.589 96.5848C223.088 96.191 221.27 96.3485 219.768 96.1516C214.669 95.5216 209.611 93.9857 204.75 92.3711C199.296 90.5596 194.632 88.0393 188.664 88.1968C178.389 88.4331 170.089 96.191 159.379 92.9224C155.15 91.6229 150.724 89.9295 147.285 87.1729C142.819 83.5893 140.092 81.4628 133.809 82.7229C128.75 83.7468 124.837 86.4247 120.529 88.9056C115.589 91.7017 110.175 93.395 104.681 94.8915C102.579 95.4713 100.418 95.8148 98.2392 95.9154C96.8955 95.9941 90.493 95.0096 89.7026 95.6791C88.9517 96.3485 88.596 100.917 88.675 101.744C88.7936 103.122 88.2008 103.28 89.7026 103.87C90.7301 104.264 93.9314 103.87 95.1961 104.028C105.511 105.209 116.063 105.564 126.22 107.336C135.745 108.99 145.349 110.329 154.755 112.298C167.007 114.818 179.535 115.999 191.787 118.441C197.715 119.622 203.722 121.316 209.571 122.576C214.907 123.718 220.281 124.781 225.656 125.844C225.459 125.096 224.352 122.418 226.131 122.694C227.277 122.852 229.174 126.75 229.767 127.617C232.399 131.468 235.566 134.928 239.173 137.895C242.927 141.124 246.721 144.314 250.515 147.504C253.638 150.103 260.317 153.962 260.159 158.491C258.262 158.845 254.507 155.498 253.084 154.592C250.199 152.741 247.433 150.733 244.785 148.646C242.255 152.308 248.223 156.601 248.935 160.066C247.393 160.066 244.824 155.852 243.876 154.75C241.386 157.034 238.619 159.082 236.841 161.956C256.839 161.09 260.119 185.821 274.544 194.209C277.746 196.06 281.737 196.847 285.413 196.02C289.207 195.154 292.882 193.973 296.242 191.846C303.711 187.042 309.205 177.866 312.129 169.951C313.75 165.579 315.291 161.366 316.003 156.758C316.832 151.678 316.042 146.48 315.41 141.439C314.224 132.421 309.402 123.285 302.605 116.826C299.562 113.912 296.202 111.392 293.396 108.241C292.408 107.139 290.195 102.925 288.97 102.649C286.717 102.177 285.531 105.327 283.99 102.728C282.449 100.208 285.373 99.2233 287.152 98.0419C289.088 96.7817 290.946 95.4428 292.803 94.1039C296.518 91.4654 300.194 88.9057 303.751 86.0703C321.101 72.4053 336.475 57.2044 352.007 41.6886C349.082 41.0191 344.972 39.0107 342.008 39.562C339.044 40.074 336.396 42.1611 333.273 42.5155C330.23 42.87 327.266 42.2005 324.46 41.2554C321.14 40.1133 318.888 38.6956 316.082 41.4916C311.616 45.981 309.126 52.2425 304.423 56.4956C299.68 60.788 293.001 63.3084 286.836 64.6079C281.105 65.8287 273.161 65.238 268.972 69.7274C268.023 70.7513 267.193 71.4601 267.114 72.9566C267.035 75.6345 267.628 73.7048 268.498 75.3982C269.92 78.1154 270.474 81.5021 270.79 84.495C271.422 90.5596 270.632 97.2149 265.731 101.389C260.396 105.721 253.914 107.611 246.958 107.493ZM246.682 97.6481C250.239 99.4596 257.432 97.0968 260.277 94.8915C264.15 91.8986 264.467 86.661 263.834 82.2897C262.056 82.7229 260.238 83.1561 258.42 83.5893C257.669 83.7862 256.878 83.9437 256.127 84.1406C256.204 84.7496 256.094 85.3673 255.811 85.9127C254.112 88.0787 253.282 87.0154 251.464 85.1251C247.512 81.1083 244.034 76.5796 242.414 71.2239C240.596 73.311 238.58 74.6499 235.695 74.3743C234.43 74.2561 229.569 72.7597 230.834 70.5544C231.229 69.8455 235.181 70.7513 236.485 70.6725C239.252 70.515 240.556 70.5938 241.544 67.9947C242.374 65.8287 242.097 64.9624 239.489 64.5686C236.209 64.0566 236.09 66.0256 233.758 66.9314C227.791 69.2548 231.861 60.0398 231.031 57.4407C233.956 56.5743 237.039 55.9836 239.647 54.3297C236.762 54.6447 234.074 55.6292 231.268 56.2987C231.506 52.912 238.264 52.1637 240.833 51.1005C238.106 50.746 235.497 52.5182 232.731 52.4394C230.162 52.3213 226.565 51.258 224.076 50.431C221.546 49.604 219.531 47.2412 217.08 49.289C215.46 50.6279 213.326 54.2903 212.772 56.2199C214.393 55.9836 218.147 55.6686 218.582 57.4801C219.135 59.8035 214.432 58.4646 212.97 58.819C210.757 59.4097 211.429 60.0398 210.638 62.2057C209.848 64.3323 208.425 66.065 206.212 66.9314C208.702 68.2703 209.374 68.2309 208.899 70.7119C208.425 73.1535 208.741 75.8707 208.978 78.588C210.48 78.055 212.05 77.7367 213.642 77.6429C213.958 79.6119 210.875 80.4389 209.255 80.557C210.085 83.1561 210.124 83.038 212.97 83.038C214.59 83.038 216.171 82.9592 217.792 82.8804C221.032 82.7229 224.194 82.1322 227.395 81.6203C228.621 81.4234 230.359 80.7539 231.585 80.8721C233.837 81.1083 233.403 81.3446 233.007 83.2349C232.494 85.7946 233.086 87.7636 233.719 90.5596C229.885 89.2601 232.968 93.2375 234.786 94.0645C238.382 95.7185 242.73 97.4512 246.682 97.6481ZM37.5343 253.122C40.2217 254.461 42.7906 255.721 45.2805 257.454C47.7308 259.186 50.3392 262.061 53.4614 262.613C57.1764 263.282 58.0854 261.352 58.9944 258.517C60.022 255.327 60.9705 253.87 63.8951 252.137C69.1119 249.026 75.1982 247.018 80.8498 244.773C83.0235 243.907 83.1815 244.064 82.5492 241.898C82.154 240.56 81.6797 239.26 81.166 238C80.2174 235.637 79.1899 233.117 77.609 231.03C68.5981 236.937 57.8483 243.749 46.7823 245.167C42.2768 245.758 37.8504 246.742 33.424 247.136C31.3692 247.313 29.3688 247.888 27.5353 248.829C25.3617 249.893 21.8047 250.247 20.2634 251.98C26.073 251.862 31.7641 252.61 37.5343 253.122ZM258.459 260.84C256.641 261.589 259.092 265.842 259.605 267.614C260.396 270.292 261.147 272.93 261.898 275.608C263.557 281.24 265.138 286.871 266.719 292.542C277.153 286.91 288.337 283.642 299.957 280.964C311.497 278.286 323.314 276.356 335.131 274.505C341.573 273.482 348.371 272.103 354.338 269.504C358.053 267.89 357.342 266.354 357.263 262.77C357.223 259.383 356.67 255.918 356.156 252.571C355.168 246.23 354.141 239.339 351.572 233.392C349.082 227.603 345.723 222.011 342.521 216.538C338.688 210.04 335.447 203.069 330.467 197.32C325.29 191.334 319.717 185.9 314.066 180.308C310.707 186.687 305.885 194.406 299.68 198.423C292.843 202.833 282.054 205.117 274.307 201.415C266.482 197.714 261.819 190.074 256.957 183.419C252.254 177 248.184 170.069 239.845 167.785C231.031 165.382 221.744 168.651 213.168 170.738C203.366 173.101 193.763 176.448 184.238 179.638C167.718 185.191 151.277 190.231 135.152 196.847C115.312 204.96 95.4332 213.033 76.2653 222.523C80.415 228.43 83.6163 233.826 85.9876 240.638C87.8096 246.014 88.9384 251.598 89.3469 257.257C91.5601 255.052 93.299 252.413 95.5518 250.168C98.0811 247.648 101.085 245.679 104.088 243.71C109.486 240.071 115.169 236.87 121.083 234.141C134.678 227.918 149.103 223.665 163.489 219.215C166.73 218.231 170.564 217.049 173.962 216.498C176.847 216.026 179.377 215.199 182.301 214.529C188.901 212.954 195.62 211.536 202.299 210.394C215.104 208.228 228.225 205.905 241.228 204.408C250.041 203.384 259.25 201.73 268.3 202.636C269.841 202.794 271.343 203.069 272.885 203.03C273.319 203.03 273.833 202.4 274.268 202.439C275.137 202.518 276.046 203.463 276.916 203.778C278.892 204.408 281.737 204.015 282.804 205.629C283.674 206.929 283.358 207.953 282.054 208.819C283.595 210.788 286.599 212.56 288.693 214.096C290.551 215.474 292.29 216.971 294.187 218.27C296.202 219.688 298.653 221.027 300.747 222.484C303.514 224.374 305.845 226.816 308.454 228.942C313.117 232.762 317.781 236.11 322.682 239.693C325.241 241.632 327.921 243.407 330.704 245.01C332.285 245.876 335.842 248.239 333.985 250.405C332.127 252.531 328.412 249.381 326.397 249.145C324.065 248.869 320.943 250.326 318.611 250.68C312.446 251.586 306.28 252.374 300.154 253.358C293.12 254.461 286.164 255.957 279.129 256.902C275.493 257.375 271.857 257.848 268.182 258.163C266.284 258.32 263.637 258.084 261.858 258.675C260.514 258.281 259.922 258.675 260.119 259.817C259.603 260.214 259.046 260.557 258.459 260.84ZM63.816 100.68C67.6496 100.641 71.4832 100.877 75.3168 100.838C76.7791 100.838 78.0833 101.114 78.6761 100.09C79.427 98.8295 79.0713 95.6003 79.1899 94.1826C74.8397 94.5828 70.463 94.6092 66.1083 94.2614C61.2867 93.8282 56.6231 92.4893 51.8015 92.1742C52.8291 92.568 54.0147 94.6946 53.3428 95.7185C52.671 96.7423 51.6039 95.8366 50.5368 95.364C46.4661 93.5919 43.0673 90.9141 38.4828 92.0955C42.7116 94.2614 46.7032 97.7269 51.1296 99.0264C55.2624 100.154 59.5312 100.711 63.816 100.68ZM349.24 30.1895C351.098 30.5439 354.773 32.3948 356.433 31.4496C358.488 30.3076 358.053 25.6607 358.132 23.8492C358.37 18.2966 358.804 10.6568 354.417 6.16743C353.627 11.4838 355.326 17.0758 355.208 22.4709C355.129 26.5271 353.587 24.3218 353.034 21.447C352.52 18.8085 352.599 16.2488 351.927 13.6497C350.702 15.7762 350.386 18.6116 349.517 20.9745C348.41 23.928 346.829 26.5665 345.288 29.3231C346.592 29.5594 347.896 29.8744 349.24 30.1895ZM82.0354 103.122C81.9959 104.658 81.7983 106.154 83.7348 106.272C86.3037 106.469 85.4738 103.831 85.3157 102.177C84.4067 102.334 82.2726 102.059 82.0354 103.122ZM348.173 32.7098C346.553 32.5129 346.315 32.1585 345.288 33.2611C344.616 33.97 344.577 35.2695 345.13 35.7421C347.58 37.7111 347.975 33.8125 348.173 32.7098ZM349.675 36.3328C350.939 36.5691 352.165 37.2386 352.876 36.0178C353.904 34.2063 351.414 34.0488 350.07 33.4974C349.951 34.4032 349.793 35.3483 349.675 36.3328ZM270.395 208.307C256.444 207.992 242.69 210.158 229.016 212.56C216.883 214.687 204.868 216.459 193.012 219.097C169.141 224.453 145.23 230.478 123.059 240.796C117.684 243.316 112.309 245.797 107.329 248.869C104.681 250.523 101.954 252.137 99.4249 253.988C98.0416 255.012 96.5793 255.997 95.3146 257.139C94.129 258.163 93.4571 259.58 92.3901 260.565C91.8763 261.037 89.7026 262.77 89.0702 262.967C87.687 263.4 88.2403 263.44 86.8175 262.455C83.8929 260.447 83.3001 257.808 82.4306 254.618C81.7983 252.374 82.2726 251.625 80.257 251.704C79.2294 251.744 77.6486 252.807 76.7 253.201C73.5778 254.5 70.2185 255.524 67.2544 257.06C64.8436 258.281 62.907 259.895 61.8795 262.337C60.6543 265.251 59.9429 267.614 56.2674 267.929C49.6673 268.52 45.8733 261.943 40.2217 259.738C34.1749 257.375 26.5078 257.848 20.1053 257.769C17.7375 257.759 15.3724 257.93 13.031 258.281C9.90876 258.714 6.19374 260.407 2.95298 259.344C-0.80156 258.123 -0.722517 252.807 1.76734 250.523C4.33623 248.121 8.20933 247.806 11.4896 246.979C18.1687 245.364 24.255 241.702 31.0923 240.56C37.89 239.418 45.0829 239.181 51.7225 237.133C55.0818 236.07 58.3621 235.283 61.5633 233.826C65.555 232.014 69.8628 230.793 73.815 229.021C72.4712 226.658 72.076 224.453 71.997 221.775C71.9575 220.003 71.6413 220.003 72.906 219.255C73.1431 219.373 73.3802 219.491 73.6569 219.649C74.4473 220.2 75.0006 219.964 75.3168 218.9C80.8103 215.592 85.869 212.048 91.7182 209.173C101.52 204.369 111.914 200.47 121.675 195.863C140.29 187.12 161.039 182.119 180.602 175.7C192.458 171.841 204.591 168.651 216.725 165.816C218.859 165.304 220.993 164.91 223.127 164.555C226.803 164.004 225.933 163.965 227.791 161.169C230.162 157.546 233.916 153.726 237.75 151.481C240.121 150.103 241.109 150.3 241.03 147.307C240.991 145.023 240.358 145.023 238.461 143.487C236.323 141.744 234.34 139.82 232.533 137.737C230.478 135.375 229.569 132.736 227.83 130.334C225.735 127.42 219.293 127.932 215.697 127.42C210.045 126.632 204.315 126.041 198.742 124.821C187.518 122.34 176.215 121.473 164.833 119.741C153.411 118.008 141.95 116.393 130.528 114.818C126.418 114.267 122.268 113.755 118.198 113.046C112.467 112.061 106.46 111.983 100.65 111.037C97.6464 110.565 94.0104 108.872 91.0068 109.029C87.766 109.187 90.6511 109.147 88.5565 110.25C87.5906 110.811 86.5097 111.148 85.3948 111.234C84.5354 111.283 83.6765 111.131 82.8871 110.789C82.0977 110.447 81.3999 109.925 80.8498 109.265C79.0713 107.06 79.9408 105.406 76.3443 105.13C73.973 104.933 71.2065 105.839 68.8353 105.997C66.464 106.115 64.0532 106.469 61.6819 106.391C56.9788 106.233 51.3668 105.839 47.0985 103.831C42.5535 101.704 38.5223 98.8689 33.7402 97.0574C31.3294 96.1516 27.9305 95.7578 26.3497 93.5919C25.006 91.7804 24.6107 88.0393 26.6659 86.5428C29.8276 84.2588 35.9139 87.7242 39.3918 86.8579C41.1702 86.4247 39.7079 85.8734 41.0517 85.2433C41.8816 84.8495 41.7631 84.8101 42.7511 84.6526C45.2014 84.2981 49.1931 86.0309 51.6829 86.4247C56.5836 87.2123 61.4447 88.4331 66.3454 89.1813C69.1514 89.6145 71.997 89.7326 74.7635 90.1658C77.2138 90.5596 79.1899 91.5048 80.9683 89.5751C81.7193 88.7481 81.4821 87.9211 82.6678 87.488C83.7348 87.0941 86.8175 87.6455 87.8451 88.0393C88.9912 88.4725 89.2283 89.1026 90.1373 89.5751C90.1768 90.5202 90.5721 90.7959 91.323 90.4021C92.0366 90.3628 92.7523 90.4025 93.4571 90.5202C99.662 90.5596 105.867 88.63 111.518 86.3459C120.885 82.5654 132.504 71.9327 143.254 77.7216C145.902 79.1393 147.641 81.5415 150.21 83.0774C152.666 84.5011 155.278 85.6375 157.996 86.4641C163.133 87.9999 168.232 87.803 173.33 86.2278C179.535 84.2588 184.554 82.2504 191.233 82.4473C197.438 82.6442 202.378 86.9366 208.465 87.0941C206.963 84.7313 206.726 81.9747 206.568 79.2968C206.449 77.5247 207.437 72.9172 206.37 71.4995C205.184 69.9243 195.976 69.2942 201.114 64.6473C202.813 63.1509 205.896 63.6628 207.635 62.0088C209.374 60.3155 209.413 57.677 210.362 55.5898C211.429 53.227 213.168 51.258 214.946 49.3284C215.697 48.5407 216.211 48.0288 216.646 47.0443C217.159 45.9023 216.804 44.9571 217.634 43.7757C220.321 39.7983 225.064 41.1766 229.174 41.6886C231.664 42.0036 234.667 41.6886 237.078 42.3974C239.015 42.9487 241.544 44.6027 243.125 45.7841C246.603 48.462 247.433 53.3845 247.67 57.4013C247.828 59.7642 247.354 61.9695 247.314 64.3323C247.275 66.8132 246.208 67.9159 244.271 69.5305C244.265 69.3292 244.198 69.1344 244.078 68.9724C243.958 68.8105 243.791 68.6891 243.599 68.6247C242.769 69.6486 242.967 70.0424 244.232 69.8455C244.269 70.455 244.505 71.0356 244.903 71.4995C245.97 72.6809 246.84 73.9411 247.867 75.1225C250.12 77.7216 252.729 79.9663 254.428 82.9198C256.246 80.8327 258.538 80.4782 260.672 79.0212C262.767 77.6035 261.186 77.2097 261.977 75.1619C262.293 74.3349 263.123 74.2168 263.399 73.5867C263.676 72.996 263.32 72.6022 263.518 71.9721C264.348 68.7035 263.992 66.6951 266.64 64.1354C270.118 60.7093 274.426 59.8035 279.248 59.1735C284.03 58.5434 287.428 58.3071 291.697 56.4168C293.159 55.7474 294.582 55.4717 295.965 54.7235C297.848 53.7723 299.623 52.6238 301.261 51.2974C305.095 48.1469 307.466 43.7757 310.588 39.9558C313.078 36.9235 316.042 33.0642 320.547 33.8519C325.646 34.7576 330.112 37.8293 335.566 36.1753C337.581 35.5452 337.344 35.939 338.174 34.0094C338.451 33.3793 338.609 32.7098 338.885 32.0797C339.834 29.7169 341.691 29.4019 342.838 27.4722C345.565 22.9041 347.027 17.1939 348.568 12.1533C349.28 9.82981 350.663 7.78203 351.532 5.57673C351.888 4.6316 351.73 0.457276 352.836 0.102853C356.393 -1.07856 359.239 8.17583 359.911 9.90857C361.61 14.4767 363.073 19.6355 362.44 24.5187C362.164 26.5271 361.966 28.8899 361.413 30.8589C360.938 32.6704 360.82 32.5523 361.096 34.1669C361.373 35.8209 361.729 36.8054 361.492 38.5381C361.413 39.0107 361.215 40.8222 360.978 41.0585C359.99 42.2005 359.871 41.4129 358.646 41.8461C356.71 42.5943 356.196 43.2244 354.813 44.9571C351.335 49.3284 347.738 53.6996 343.984 57.8345C337.423 65.1199 330.507 71.6177 323.156 78.076C315.923 84.4163 308.375 90.8747 300.154 96.0335C298.178 97.2937 294.898 98.3963 293.278 100.05C291.539 101.862 294.187 102.649 296.005 103.91C299.601 106.469 303.277 109.068 306.399 112.061C313.038 118.402 316.872 127.735 319.204 136.202C320.429 140.612 320.666 145.692 321.14 150.26C321.666 155.775 321.048 161.338 319.322 166.603C318.69 168.533 317.939 170.423 317.307 172.392C317.03 173.298 315.607 176.054 316.003 177.078C316.635 178.772 320.785 180.859 322.247 182.04C324.223 183.655 326.278 185.348 327.938 187.278C334.873 195.387 340.927 204.205 345.999 213.584C351.295 223.193 356.275 231.857 358.37 242.686C358.923 245.521 359.397 248.318 359.99 251.153C360.622 254.185 360.029 258.556 361.255 261.352C362.005 263.085 363.428 263.597 362.875 265.96C362.361 268.008 359.832 271.631 358.449 273.245C355.287 276.908 349.517 278.365 344.972 279.704C339.439 281.318 333.55 282.066 327.859 282.972C307.347 286.28 287.27 289.903 268.3 298.409C268.932 299.354 269.446 301.324 268.142 301.993C266.403 302.859 265.573 300.339 264.98 299.197C263.241 295.968 262.728 291.754 261.7 288.21C259.171 279.546 257.274 270.804 255.218 262.061C248.223 263.518 241.188 264.306 234.233 265.645C231.031 266.275 227.791 266.314 224.55 266.708C221.072 267.141 220.874 268.205 221.151 271.513C221.744 278.759 224.668 285.729 226.328 292.817C227.119 296.243 228.541 299.512 229.292 302.899C229.53 304.001 229.253 306.994 230.043 307.821C230.004 307.782 232.691 308.333 233.126 308.412C232.889 304.12 233.403 299.906 233.205 295.653C232.968 291.242 232.375 285.414 233.363 281.161C234.272 277.262 237.71 273.167 241.505 271.513C244.824 270.095 251.385 267.771 254.942 269.898C255.574 270.252 257.076 271.434 256.72 272.34C256.246 273.56 250.95 274.466 249.883 274.86C245.694 276.317 241.228 278.916 238.857 282.618C236.722 285.965 237.592 291.163 237.671 295.023C237.71 297.228 237.987 299.236 237.71 301.402C237.315 304.474 237.157 305.616 238.422 308.254C239.924 311.366 238.975 315.934 234.549 314.831C231.901 314.162 231.782 312.704 230.201 311.129C229.609 310.539 228.897 310.814 228.304 310.066C227.514 309.042 227.514 306.837 227.119 305.577C225.815 301.52 223.997 297.543 222.653 293.487C220.835 287.974 219.333 282.421 218.029 276.79C217.001 272.418 215.895 267.968 218.029 263.715C219.926 259.935 224.51 260.21 228.344 260.092C237.197 259.777 246.326 257.848 255.377 257.414C256.009 257.375 257.392 257.611 257.945 257.336C258.736 256.981 259.052 255.879 260.08 255.17C262.056 253.831 266.008 253.398 268.3 252.964C273.517 252.059 278.694 251.31 283.872 250.326C289.839 249.223 295.728 247.884 301.696 246.9C307.426 245.955 313.196 245.758 318.967 245.088C309.798 239.181 301.735 232.014 292.882 225.634C288.838 222.789 284.983 219.684 281.342 216.341C279.789 214.964 278.311 213.505 276.916 211.969C276.165 211.142 275.533 209.567 274.584 209.016C273.28 208.228 271.936 208.425 270.395 208.307Z" fill="#400D14"/>
<path fill-rule="evenodd" clip-rule="evenodd" d="M236.723 42.3582C233.679 42.0825 230.201 42.0825 227.277 41.4131C229.846 41.6494 234.351 41.4918 236.723 42.3582Z" fill="#400D14"/>
<path fill-rule="evenodd" clip-rule="evenodd" d="M69.9815 89.6148C68.6773 89.4967 67.4126 89.3785 66.1084 89.2604C67.4097 89.0823 68.7346 89.2035 69.9815 89.6148Z" fill="#400D14"/>
<path fill-rule="evenodd" clip-rule="evenodd" d="M149.459 117.575C150.328 117.654 151.198 117.733 152.028 117.811C151.198 117.733 150.328 117.654 149.459 117.575Z" fill="#400D14"/>
<path fill-rule="evenodd" clip-rule="evenodd" d="M237.354 295.26C237.394 294.236 237.433 293.251 237.472 292.228C237.433 293.251 237.394 294.275 237.354 295.26Z" fill="#400D14"/>
<path fill-rule="evenodd" clip-rule="evenodd" d="M232.612 303.057C232.612 303.765 232.573 304.514 232.573 305.223C232.573 304.474 232.612 303.765 232.612 303.057Z" fill="#400D14"/>
<path fill-rule="evenodd" clip-rule="evenodd" d="M128.513 114.425C129.106 114.504 129.659 114.582 130.212 114.661C129.619 114.582 129.066 114.504 128.513 114.425Z" fill="#400D14"/>
<path fill-rule="evenodd" clip-rule="evenodd" d="M225.538 41.2555C224.827 41.1767 224.115 41.1374 223.404 41.0586C224.115 41.1374 224.827 41.2161 225.538 41.2555Z" fill="#400D14"/>
<path fill-rule="evenodd" clip-rule="evenodd" d="M232.73 291.833C232.691 292.542 232.691 293.29 232.652 293.999C232.691 293.29 232.73 292.542 232.73 291.833Z" fill="#400D14"/>
<path fill-rule="evenodd" clip-rule="evenodd" d="M125.035 114.149C125.627 114.189 126.181 114.268 126.774 114.307C126.181 114.268 125.627 114.228 125.035 114.149Z" fill="#400D14"/>
<path fill-rule="evenodd" clip-rule="evenodd" d="M134.045 115.37C134.638 115.41 135.192 115.488 135.784 115.528C135.192 115.488 134.638 115.449 134.045 115.37Z" fill="#400D14"/>
<path fill-rule="evenodd" clip-rule="evenodd" d="M202.932 125.727L204.236 125.845C203.801 125.766 203.366 125.766 202.932 125.727Z" fill="#400D14"/>
<path fill-rule="evenodd" clip-rule="evenodd" d="M233.045 299.197C233.006 299.788 232.928 300.339 232.889 300.93C232.928 300.339 232.967 299.788 233.045 299.197Z" fill="#400D14"/>
<path fill-rule="evenodd" clip-rule="evenodd" d="M270.276 208.465L271.581 208.583C271.106 208.544 270.672 208.504 270.276 208.465Z" fill="#400D14"/>
<path fill-rule="evenodd" clip-rule="evenodd" d="M52.4733 86.3072C51.92 86.1891 51.3272 86.1103 50.7739 85.9922C51.3667 86.1103 51.92 86.2285 52.4733 86.3072Z" fill="#400D14"/>
<path fill-rule="evenodd" clip-rule="evenodd" d="M62.3142 88.0793L60.6147 87.6855L62.3142 88.0793Z" fill="#400D14"/>
<path fill-rule="evenodd" clip-rule="evenodd" d="M39.4314 86.898C38.8781 86.7799 38.2852 86.6618 37.7319 86.583C38.2852 86.7011 38.8781 86.8193 39.4314 86.898Z" fill="#400D14"/>
<path fill-rule="evenodd" clip-rule="evenodd" d="M264.19 208.387C264.467 208.426 264.783 208.465 265.059 208.505C264.776 208.427 264.484 208.387 264.19 208.387Z" fill="#400D14"/>
<path fill-rule="evenodd" clip-rule="evenodd" d="M204.71 70.9482C204.987 70.9876 205.263 71.027 205.579 71.0664C205.286 71.0632 204.994 71.0236 204.71 70.9482Z" fill="#400D14"/>
<path fill-rule="evenodd" clip-rule="evenodd" d="M301.577 246.939C300.985 246.979 300.431 247.018 299.838 247.058C300.392 247.018 300.985 246.979 301.577 246.939Z" fill="#400D14"/>
<path fill-rule="evenodd" clip-rule="evenodd" d="M320.626 160.815L320.744 159.516L320.626 160.815Z" fill="#400D14"/>
<path fill-rule="evenodd" clip-rule="evenodd" d="M217.989 127.46C218.266 127.499 218.582 127.499 218.859 127.539C218.571 127.495 218.28 127.468 217.989 127.46Z" fill="#400D14"/>
<path fill-rule="evenodd" clip-rule="evenodd" d="M100.61 111.195C100.887 111.195 101.203 111.235 101.48 111.235C101.164 111.235 100.887 111.195 100.61 111.195Z" fill="#400D14"/>
<path fill-rule="evenodd" clip-rule="evenodd" d="M55.6353 99.7354C56.979 99.8535 58.2041 99.8929 59.4688 100.287C58.2437 100.208 56.7814 100.365 55.6353 99.7354Z" fill="#400D14"/>
<path fill-rule="evenodd" clip-rule="evenodd" d="M69.4678 100.366C70.6126 100.11 71.8075 100.192 72.9061 100.602C71.76 100.563 70.6139 100.484 69.4678 100.366Z" fill="#400D14"/>
<path fill-rule="evenodd" clip-rule="evenodd" d="M246.603 97.8457C247.591 97.9245 248.618 98.0032 249.606 98.082C248.611 98.381 247.539 98.2966 246.603 97.8457Z" fill="#400D14"/>
<path fill-rule="evenodd" clip-rule="evenodd" d="M348.134 32.553C347.422 32.4743 346.711 32.3561 346 32.2773C346.711 32.3955 347.422 32.4743 348.134 32.553Z" fill="#400D14"/>
<path fill-rule="evenodd" clip-rule="evenodd" d="M34.8467 252.925C35.7557 252.492 36.5856 252.807 37.4156 253.161C36.5461 253.043 35.6766 253.004 34.8467 252.925Z" fill="#400D14"/>
<path fill-rule="evenodd" clip-rule="evenodd" d="M88.6744 100.405C88.6744 101.114 88.6353 101.862 88.6353 102.571C88.6353 101.862 88.6744 101.114 88.6744 100.405Z" fill="#400D14"/>
<path fill-rule="evenodd" clip-rule="evenodd" d="M247.038 107.494C246.445 107.455 245.892 107.415 245.299 107.376C245.892 107.415 246.484 107.455 247.038 107.494Z" fill="#400D14"/>
<path fill-rule="evenodd" clip-rule="evenodd" d="M211.863 122.931C212.575 123.049 213.286 123.206 213.997 123.324C213.286 123.206 212.575 123.049 211.863 122.931Z" fill="#400D14"/>
<path fill-rule="evenodd" clip-rule="evenodd" d="M64.8039 94.1833C64.2111 94.1439 63.6578 94.1045 63.0649 94.1045C63.6578 94.1439 64.2506 94.1833 64.8039 94.1833Z" fill="#400D14"/>
<path fill-rule="evenodd" clip-rule="evenodd" d="M207.161 122.025C207.872 122.144 208.583 122.301 209.295 122.419C208.583 122.38 207.793 122.616 207.161 122.025Z" fill="#400D14"/>
<path fill-rule="evenodd" clip-rule="evenodd" d="M71.6807 94.8131C71.2459 94.7738 70.8112 94.7738 70.3765 94.7344C70.8112 94.7738 71.2459 94.7738 71.6807 94.8131Z" fill="#400D14"/>
<path fill-rule="evenodd" clip-rule="evenodd" d="M195.699 119.348C196.411 119.466 197.122 119.623 197.833 119.741C197.122 119.623 196.411 119.505 195.699 119.348Z" fill="#400D14"/>
<path fill-rule="evenodd" clip-rule="evenodd" d="M349.556 36.4121C350.268 36.5303 350.979 36.6878 351.69 36.8059C350.939 36.6878 350.268 36.5696 349.556 36.4121Z" fill="#400D14"/>
<path fill-rule="evenodd" clip-rule="evenodd" d="M169.654 115.016C170.366 115.094 171.077 115.173 171.788 115.213C171.077 115.173 170.366 115.094 169.654 115.016Z" fill="#400D14"/>
<path fill-rule="evenodd" clip-rule="evenodd" d="M349.201 30.3477C349.912 30.4658 350.623 30.6233 351.335 30.7415C350.623 30.6233 349.912 30.4658 349.201 30.3477Z" fill="#400D14"/>
<path fill-rule="evenodd" clip-rule="evenodd" d="M88.7144 103.517C89.4257 103.556 90.1371 103.595 90.888 103.674C90.5475 103.854 90.1629 103.935 89.7784 103.907C89.3939 103.879 89.0251 103.744 88.7144 103.517Z" fill="#400D14"/>
<path fill-rule="evenodd" clip-rule="evenodd" d="M231.031 60.1195C231.07 59.5288 231.149 58.9774 231.188 58.3867C231.149 58.9774 231.07 59.5288 231.031 60.1195Z" fill="#400D14"/>
<path fill-rule="evenodd" clip-rule="evenodd" d="M230.833 62.2454C230.873 61.6547 230.951 61.1034 230.99 60.5127C230.951 61.1034 230.912 61.6941 230.833 62.2454Z" fill="#400D14"/>
<path fill-rule="evenodd" clip-rule="evenodd" d="M233.166 166.761C232.731 166.722 232.296 166.722 231.861 166.683C232.296 166.722 232.731 166.761 233.166 166.761Z" fill="#400D14"/>
<path fill-rule="evenodd" clip-rule="evenodd" d="M270.75 86.8975C270.671 87.4488 270.632 88.0395 270.553 88.5908C270.632 88.0395 270.71 87.4882 270.75 86.8975Z" fill="#400D14"/>
<path fill-rule="evenodd" clip-rule="evenodd" d="M280.038 196.06C280.749 196.06 281.5 196.06 282.212 196.021C281.461 196.021 280.749 196.021 280.038 196.06Z" fill="#400D14"/>
<path fill-rule="evenodd" clip-rule="evenodd" d="M231.624 80.833C231.894 80.6741 232.207 80.6038 232.519 80.6321C232.831 80.6604 233.126 80.7858 233.363 80.9905C232.77 80.9118 232.177 80.8724 231.624 80.833Z" fill="#400D14"/>
<path fill-rule="evenodd" clip-rule="evenodd" d="M236.485 74.6504C236.209 74.611 235.932 74.5716 235.616 74.5322C235.932 74.5716 236.209 74.611 236.485 74.6504Z" fill="#400D14"/>
<path fill-rule="evenodd" clip-rule="evenodd" d="M239.252 161.603C239.805 161.721 240.398 161.839 240.951 161.957C240.398 161.839 239.805 161.721 239.252 161.603Z" fill="#400D14"/>
<path fill-rule="evenodd" clip-rule="evenodd" d="M219.649 207.204C220.242 207.204 220.795 207.165 221.388 207.165C220.795 207.165 220.242 207.165 219.649 207.204Z" fill="#400D14"/>
<path fill-rule="evenodd" clip-rule="evenodd" d="M207.279 209.568C207.872 209.568 208.425 209.528 209.018 209.528C208.464 209.528 207.872 209.568 207.279 209.568Z" fill="#400D14"/>
<path fill-rule="evenodd" clip-rule="evenodd" d="M202.022 210.434C202.615 210.395 203.169 210.395 203.761 210.355L202.022 210.434Z" fill="#400D14"/>
<path fill-rule="evenodd" clip-rule="evenodd" d="M196.727 211.261L198.465 211.183C197.912 211.222 197.319 211.222 196.727 211.261Z" fill="#400D14"/>
<path fill-rule="evenodd" clip-rule="evenodd" d="M308.019 252.375C307.584 252.335 307.15 252.335 306.715 252.296C307.189 252.335 307.584 252.335 308.019 252.375Z" fill="#400D14"/>
<path fill-rule="evenodd" clip-rule="evenodd" d="M219.531 124.467C220.084 124.585 220.677 124.703 221.23 124.821C220.677 124.703 220.124 124.585 219.531 124.467Z" fill="#400D14"/>
<path fill-rule="evenodd" clip-rule="evenodd" d="M326.515 41.846C326.238 41.846 325.922 41.8066 325.646 41.8066C325.922 41.8066 326.238 41.846 326.515 41.846Z" fill="#400D14"/>
<path fill-rule="evenodd" clip-rule="evenodd" d="M69.5467 94.6559C69.259 94.6102 68.9685 94.5838 68.6772 94.5771C68.9684 94.5856 69.2588 94.6119 69.5467 94.6559Z" fill="#400D14"/>
<path fill-rule="evenodd" clip-rule="evenodd" d="M191.036 118.087C191.589 118.205 192.182 118.323 192.735 118.441C192.182 118.323 191.628 118.205 191.036 118.087Z" fill="#400D14"/>
<path fill-rule="evenodd" clip-rule="evenodd" d="M126.102 107.258C126.655 107.376 127.248 107.455 127.801 107.573C127.248 107.455 126.655 107.376 126.102 107.258Z" fill="#400D14"/>
<path fill-rule="evenodd" clip-rule="evenodd" d="M75.9097 100.917C76.5025 100.917 77.0558 100.878 77.6486 100.878C77.0953 100.878 76.5025 100.878 75.9097 100.917Z" fill="#400D14"/>
<path fill-rule="evenodd" clip-rule="evenodd" d="M91.7183 103.634C92.3111 103.398 92.9039 103.28 93.4572 103.753C92.8644 103.713 92.3111 103.674 91.7183 103.634Z" fill="#400D14"/>
<path fill-rule="evenodd" clip-rule="evenodd" d="M290.669 138.368C292.764 138.683 293.752 139.155 294.305 141.164C294.582 142.109 293.831 143.841 294.068 144.432C294.424 145.22 294.898 144.787 295.491 145.535C297.625 148.252 298.771 153.608 294.582 155.498C293.001 153.608 293.554 151.363 294.621 149.394C292.369 148.882 291.183 148.803 290.472 146.519C290.393 146.244 290.234 142.936 290.155 142.857C289.681 142.384 287.784 142.857 287.152 142.503C285.729 141.715 285.057 138.998 285.413 137.501C285.927 135.414 288.14 134.351 289.8 133.169C284.385 133.288 279.445 137.383 274.031 137.619C272.529 137.698 272.134 138.368 271.62 136.674C271.146 135.178 271.659 135.375 272.687 134.626C274.703 133.169 277.785 132.185 280.196 131.319C283.674 130.098 289.642 127.223 293.396 128.838C295.254 129.625 296.597 132.106 296.005 133.996C295.412 135.926 292.171 137.265 290.669 138.368Z" fill="#400D14"/>
<path fill-rule="evenodd" clip-rule="evenodd" d="M292.843 110.566C294.384 112.968 295.056 115.488 293.396 118.048C295.767 117.851 298.415 117.418 299.957 119.584C302.209 122.695 299.878 123.679 297.269 123.876C295.175 124.034 291.025 125.373 289.167 123.955C286.164 121.631 289.167 117.26 290.313 115.055C288.377 115.134 283.555 115.685 284.385 112.101C285.017 109.463 290.946 110.132 292.843 110.566Z" fill="#400D14"/>
<path fill-rule="evenodd" clip-rule="evenodd" d="M268.102 126.12L266.245 128.326C267.193 128.523 268.498 127.735 269.328 127.381C268.893 126.947 268.498 126.514 268.102 126.12ZM265.257 123.167C263.044 122.852 260.633 125.766 260.119 122.497C259.803 120.607 261.581 118.166 263.676 117.89C267.312 117.378 272.45 125.648 273.359 128.483C274.189 131.122 273.319 130.728 271.383 131.712C269.723 132.539 267.549 134.508 265.375 133.918C263.399 133.366 262.767 130.216 262.767 128.562C262.767 126.002 264.308 125.175 265.257 123.167Z" fill="#400D14"/>
<path fill-rule="evenodd" clip-rule="evenodd" d="M276.56 123.128C276.876 124.152 279.327 128.917 277.153 128.917C275.967 128.917 273.715 122.025 273.359 121.198C272.924 120.096 271.976 118.638 272.134 117.378C272.41 115.252 272.292 115.921 273.754 116.158C276.56 116.591 278.892 120.883 281.54 121.946C280.433 117.89 278.773 113.401 279.919 109.227C283.081 112.141 283.239 118.166 284.109 122.143C284.385 123.364 285.018 125.845 283.674 126.672C282.212 127.696 277.588 123.797 276.56 123.128Z" fill="#400D14"/>
<path fill-rule="evenodd" clip-rule="evenodd" d="M256.325 131.949C257.392 129.744 258.499 127.184 254.626 128.011C255.219 129.311 255.772 130.61 256.325 131.949ZM255.1 122.734C258.42 122.458 260.317 126.83 260.673 129.35C260.949 131.358 258.855 138.408 256.009 136.281C254.942 135.493 254.349 133.327 253.677 132.225C252.729 130.728 251.385 129.311 250.674 127.696C249.132 124.309 251.859 122.734 255.1 122.734Z" fill="#400D14"/>
<path fill-rule="evenodd" clip-rule="evenodd" d="M255.219 122.812C254.507 122.812 253.756 122.813 253.045 122.852C253.796 122.852 254.507 122.812 255.219 122.812Z" fill="#400D14"/>
<path fill-rule="evenodd" clip-rule="evenodd" d="M293.159 110.802C292.606 110.684 292.013 110.526 291.459 110.408C292.013 110.526 292.566 110.684 293.159 110.802Z" fill="#400D14"/>
<path fill-rule="evenodd" clip-rule="evenodd" d="M297.704 118.127C297.111 118.087 296.558 118.008 295.965 117.969C296.235 117.809 296.548 117.739 296.86 117.767C297.173 117.795 297.468 117.921 297.704 118.127Z" fill="#400D14"/>
<path fill-rule="evenodd" clip-rule="evenodd" d="M218.108 62.0097C220.914 64.0181 214.709 71.5398 212.259 65.4358C211.587 63.7425 211.784 61.6159 213.602 62.0491C214.432 62.246 214.511 63.4668 215.657 63.5062C216.764 63.585 217.317 62.6005 218.108 62.0097Z" fill="#400D14"/>
<path fill-rule="evenodd" clip-rule="evenodd" d="M234.391 69.0579C234.43 67.5615 237.315 64.5686 238.975 66.5376C240.635 68.5066 235.616 68.9792 234.391 69.0579Z" fill="#400D14"/>
</g>
<defs>
<clipPath id="clip0_2363_3005">
<rect width="363" height="315" fill="white"/>
</clipPath>
</defs>
</svg>
