<svg width="117" height="50" viewBox="0 0 117 50" fill="none" xmlns="http://www.w3.org/2000/svg">
<path d="M34.1506 9.15112C36.232 10.3528 38.0563 11.9527 39.5194 13.8594C40.9824 15.7661 42.0556 17.9423 42.6777 20.2638C43.2997 22.5852 43.4584 25.0065 43.1447 27.3893C42.831 29.7721 42.051 32.0698 40.8494 34.1511C39.6477 36.2325 38.0478 38.0568 36.1411 39.5199C34.2344 40.9829 32.0582 42.0561 29.7367 42.6782C27.4153 43.3002 24.994 43.4589 22.6112 43.1452C20.2284 42.8315 17.9307 42.0515 15.8494 40.8499L25 25.0005L34.1506 9.15112Z" fill="#400D14"/>
<circle cx="24.1835" cy="25.4912" r="8.49702" fill="white"/>
<path d="M56.9603 33.5V17.3384H60.3773V30.6828H67.306V33.5H56.9603ZM74.9824 33.7367C73.7566 33.7367 72.6965 33.4763 71.8021 32.9555C70.913 32.4294 70.2265 31.6981 69.7425 30.7617C69.2584 29.82 69.0164 28.7283 69.0164 27.4867C69.0164 26.2346 69.2584 25.1404 69.7425 24.2039C70.2265 23.2622 70.913 22.5309 71.8021 22.0101C72.6965 21.484 73.7566 21.221 74.9824 21.221C76.2082 21.221 77.2656 21.484 78.1547 22.0101C79.0491 22.5309 79.7382 23.2622 80.2223 24.2039C80.7063 25.1404 80.9483 26.2346 80.9483 27.4867C80.9483 28.7283 80.7063 29.82 80.2223 30.7617C79.7382 31.6981 79.0491 32.4294 78.1547 32.9555C77.2656 33.4763 76.2082 33.7367 74.9824 33.7367ZM74.9981 31.1326C75.5558 31.1326 76.0214 30.9747 76.3949 30.6591C76.7684 30.3382 77.0499 29.9015 77.2393 29.3491C77.434 28.7967 77.5313 28.168 77.5313 27.4631C77.5313 26.7581 77.434 26.1294 77.2393 25.577C77.0499 25.0246 76.7684 24.588 76.3949 24.267C76.0214 23.9461 75.5558 23.7857 74.9981 23.7857C74.4352 23.7857 73.9617 23.9461 73.5777 24.267C73.1989 24.588 72.9122 25.0246 72.7175 25.577C72.5281 26.1294 72.4334 26.7581 72.4334 27.4631C72.4334 28.168 72.5281 28.7967 72.7175 29.3491C72.9122 29.9015 73.1989 30.3382 73.5777 30.6591C73.9617 30.9747 74.4352 31.1326 74.9981 31.1326ZM88.595 38.298C87.506 38.298 86.5722 38.148 85.7936 37.8482C85.0202 37.5536 84.4047 37.1511 83.947 36.6408C83.4893 36.1305 83.1921 35.557 83.0553 34.9205L86.1645 34.5022C86.2592 34.7442 86.4091 34.9704 86.6143 35.1809C86.8195 35.3913 87.0904 35.5597 87.4271 35.6859C87.7691 35.8174 88.1847 35.8832 88.674 35.8832C89.4052 35.8832 90.0076 35.7043 90.4811 35.3466C90.9598 34.9941 91.1992 34.4023 91.1992 33.571V31.3535H91.0572C90.9099 31.6902 90.6889 32.0085 90.3943 32.3084C90.0997 32.6083 89.7209 32.8529 89.2579 33.0423C88.795 33.2317 88.2426 33.3264 87.6007 33.3264C86.6906 33.3264 85.862 33.116 85.1149 32.6951C84.3731 32.2689 83.7813 31.6192 83.3394 30.7459C82.9027 29.8673 82.6844 28.7573 82.6844 27.4157C82.6844 26.0426 82.908 24.8957 83.3551 23.9751C83.8023 23.0544 84.3968 22.3652 85.1386 21.9075C85.8857 21.4498 86.7037 21.221 87.5928 21.221C88.2715 21.221 88.8397 21.3367 89.2974 21.5682C89.7551 21.7944 90.1233 22.0785 90.4022 22.4205C90.6863 22.7572 90.9046 23.0886 91.0572 23.4148H91.1834V21.3788H94.5215V33.6184C94.5215 34.6495 94.269 35.5123 93.7639 36.2068C93.2589 36.9012 92.5592 37.422 91.6648 37.7693C90.7757 38.1217 89.7524 38.298 88.595 38.298ZM88.6661 30.8011C89.2079 30.8011 89.6656 30.667 90.0392 30.3987C90.418 30.1251 90.7073 29.7358 90.9072 29.2307C91.1124 28.7204 91.215 28.1102 91.215 27.3999C91.215 26.6897 91.115 26.0742 90.9151 25.5533C90.7152 25.0273 90.4258 24.6195 90.0471 24.3302C89.6683 24.0408 89.2079 23.8961 88.6661 23.8961C88.1137 23.8961 87.6481 24.0461 87.2693 24.346C86.8905 24.6406 86.6038 25.0509 86.4091 25.577C86.2145 26.1031 86.1171 26.7108 86.1171 27.3999C86.1171 28.0996 86.2145 28.7047 86.4091 29.215C86.609 29.72 86.8958 30.112 87.2693 30.3908C87.6481 30.6644 88.1137 30.8011 88.6661 30.8011ZM102.673 33.7367C101.448 33.7367 100.387 33.4763 99.4931 32.9555C98.604 32.4294 97.9174 31.6981 97.4334 30.7617C96.9494 29.82 96.7074 28.7283 96.7074 27.4867C96.7074 26.2346 96.9494 25.1404 97.4334 24.2039C97.9174 23.2622 98.604 22.5309 99.4931 22.0101C100.387 21.484 101.448 21.221 102.673 21.221C103.899 21.221 104.957 21.484 105.846 22.0101C106.74 22.5309 107.429 23.2622 107.913 24.2039C108.397 25.1404 108.639 26.2346 108.639 27.4867C108.639 28.7283 108.397 29.82 107.913 30.7617C107.429 31.6981 106.74 32.4294 105.846 32.9555C104.957 33.4763 103.899 33.7367 102.673 33.7367ZM102.689 31.1326C103.247 31.1326 103.712 30.9747 104.086 30.6591C104.459 30.3382 104.741 29.9015 104.93 29.3491C105.125 28.7967 105.222 28.168 105.222 27.4631C105.222 26.7581 105.125 26.1294 104.93 25.577C104.741 25.0246 104.459 24.588 104.086 24.267C103.712 23.9461 103.247 23.7857 102.689 23.7857C102.126 23.7857 101.653 23.9461 101.269 24.267C100.89 24.588 100.603 25.0246 100.408 25.577C100.219 26.1294 100.124 26.7581 100.124 27.4631C100.124 28.168 100.219 28.7967 100.408 29.3491C100.603 29.9015 100.89 30.3382 101.269 30.6591C101.653 30.9747 102.126 31.1326 102.689 31.1326ZM112.79 33.7052C112.269 33.7052 111.822 33.521 111.449 33.1528C111.08 32.7793 110.896 32.3321 110.896 31.8112C110.896 31.2957 111.08 30.8537 111.449 30.4855C111.822 30.1172 112.269 29.9331 112.79 29.9331C113.295 29.9331 113.737 30.1172 114.116 30.4855C114.495 30.8537 114.684 31.2957 114.684 31.8112C114.684 32.1585 114.595 32.4767 114.416 32.7661C114.242 33.0502 114.013 33.279 113.729 33.4527C113.445 33.621 113.132 33.7052 112.79 33.7052Z" fill="#FAFAFA"/>
</svg>
